<svg width="18" height="19" viewBox="0 0 18 19" fill="none" xmlns="http://www.w3.org/2000/svg">
<path opacity="0.5" d="M9.91477 18.8352C11.3636 18.8352 13.2102 18.4091 14.0909 18.0398L13.6932 16.733C13.1818 16.9034 11.5341 17.4716 9.97159 17.4716C5.11364 17.4716 2.52841 14.7443 2.52841 9.91477C2.52841 5.17045 5.17045 2.32955 9.63068 2.32955C14.1477 2.32955 16.2784 5.51136 16.2784 8.69318C16.2784 11.9318 15.9375 13.3807 14.4886 13.3807C13.6364 13.3807 13.1818 12.6705 13.1818 11.875V5.45455H11.6761V6.25H11.5909C11.392 5.625 10.2841 5.08523 8.86364 5.22727C6.73295 5.45455 5.11364 7.21591 5.11364 9.77273C5.11364 12.4716 6.39205 14.5455 8.86364 14.6307C10.483 14.6875 11.3352 13.892 11.6761 13.0682H11.7614C11.9318 14.2898 13.4659 14.7159 14.4602 14.7159C17.4716 14.7159 17.7557 11.4773 17.7557 8.72159C17.7557 4.82955 15.0284 0.994318 9.71591 0.994318C4.23295 0.994318 0.965909 4.31818 0.965909 9.85795C0.965909 15.5966 4.11932 18.8352 9.91477 18.8352ZM9.09091 13.1818C7.24432 13.1818 6.59091 11.5057 6.59091 9.6875C6.59091 8.03977 7.52841 6.61932 9.14773 6.61932C10.8523 6.61932 11.7614 7.30114 11.7614 9.6875C11.7614 12.0455 10.9943 13.1818 9.09091 13.1818Z" fill="#868686"/>
</svg>
