<svg width="26" height="18" viewBox="0 0 26 18" fill="none" xmlns="http://www.w3.org/2000/svg">
<rect width="25.2" height="18" rx="2" fill="white"/>
<path fill-rule="evenodd" clip-rule="evenodd" d="M25.2 0H0V1.2H25.2V0ZM25.2 2.4H0V3.6H25.2V2.4ZM0 4.8H25.2V6H0V4.8ZM25.2 7.2H0V8.4H25.2V7.2ZM0 9.6H25.2V10.8H0V9.6ZM25.2 12H0V13.2H25.2V12ZM0 14.4H25.2V15.6H0V14.4ZM25.2 16.8H0V18H25.2V16.8Z" fill="#D02F44"/>
<rect width="10.8" height="8.4" fill="#46467F"/>
<g filter="url(#filter0_d_167_1464)">
<path fill-rule="evenodd" clip-rule="evenodd" d="M2.4002 1.8002C2.4002 2.13157 2.13157 2.4002 1.8002 2.4002C1.46882 2.4002 1.2002 2.13157 1.2002 1.8002C1.2002 1.46882 1.46882 1.2002 1.8002 1.2002C2.13157 1.2002 2.4002 1.46882 2.4002 1.8002ZM4.80019 1.8002C4.80019 2.13157 4.53157 2.4002 4.2002 2.4002C3.86882 2.4002 3.60019 2.13157 3.60019 1.8002C3.60019 1.46882 3.86882 1.2002 4.2002 1.2002C4.53157 1.2002 4.80019 1.46882 4.80019 1.8002ZM6.6002 2.4002C6.93157 2.4002 7.20019 2.13157 7.20019 1.8002C7.20019 1.46882 6.93157 1.2002 6.6002 1.2002C6.26882 1.2002 6.0002 1.46882 6.0002 1.8002C6.0002 2.13157 6.26882 2.4002 6.6002 2.4002ZM9.6002 1.8002C9.6002 2.13157 9.33157 2.4002 9.0002 2.4002C8.66883 2.4002 8.4002 2.13157 8.4002 1.8002C8.4002 1.46882 8.66883 1.2002 9.0002 1.2002C9.33157 1.2002 9.6002 1.46882 9.6002 1.8002ZM3.0002 3.6002C3.33157 3.6002 3.6002 3.33157 3.6002 3.0002C3.6002 2.66882 3.33157 2.4002 3.0002 2.4002C2.66882 2.4002 2.4002 2.66882 2.4002 3.0002C2.4002 3.33157 2.66882 3.6002 3.0002 3.6002ZM6.0002 3.0002C6.0002 3.33157 5.73157 3.6002 5.4002 3.6002C5.06882 3.6002 4.8002 3.33157 4.8002 3.0002C4.8002 2.66882 5.06882 2.4002 5.4002 2.4002C5.73157 2.4002 6.0002 2.66882 6.0002 3.0002ZM7.8002 3.6002C8.13157 3.6002 8.4002 3.33157 8.4002 3.0002C8.4002 2.66882 8.13157 2.4002 7.8002 2.4002C7.46882 2.4002 7.20019 2.66882 7.20019 3.0002C7.20019 3.33157 7.46882 3.6002 7.8002 3.6002ZM9.6002 4.2002C9.6002 4.53157 9.33157 4.8002 9.0002 4.8002C8.66883 4.8002 8.4002 4.53157 8.4002 4.2002C8.4002 3.86882 8.66883 3.6002 9.0002 3.6002C9.33157 3.6002 9.6002 3.86882 9.6002 4.2002ZM6.6002 4.8002C6.93157 4.8002 7.20019 4.53157 7.20019 4.2002C7.20019 3.86882 6.93157 3.6002 6.6002 3.6002C6.26882 3.6002 6.0002 3.86882 6.0002 4.2002C6.0002 4.53157 6.26882 4.8002 6.6002 4.8002ZM4.80019 4.2002C4.80019 4.53157 4.53157 4.8002 4.2002 4.8002C3.86882 4.8002 3.60019 4.53157 3.60019 4.2002C3.60019 3.86882 3.86882 3.6002 4.2002 3.6002C4.53157 3.6002 4.80019 3.86882 4.80019 4.2002ZM1.8002 4.8002C2.13157 4.8002 2.4002 4.53157 2.4002 4.2002C2.4002 3.86882 2.13157 3.6002 1.8002 3.6002C1.46882 3.6002 1.2002 3.86882 1.2002 4.2002C1.2002 4.53157 1.46882 4.8002 1.8002 4.8002ZM3.6002 5.4002C3.6002 5.73157 3.33157 6.00019 3.0002 6.00019C2.66882 6.00019 2.4002 5.73157 2.4002 5.4002C2.4002 5.06882 2.66882 4.8002 3.0002 4.8002C3.33157 4.8002 3.6002 5.06882 3.6002 5.4002ZM5.4002 6.00019C5.73157 6.00019 6.0002 5.73157 6.0002 5.4002C6.0002 5.06882 5.73157 4.8002 5.4002 4.8002C5.06882 4.8002 4.8002 5.06882 4.8002 5.4002C4.8002 5.73157 5.06882 6.00019 5.4002 6.00019ZM8.4002 5.4002C8.4002 5.73157 8.13157 6.00019 7.8002 6.00019C7.46882 6.00019 7.20019 5.73157 7.20019 5.4002C7.20019 5.06882 7.46882 4.8002 7.8002 4.8002C8.13157 4.8002 8.4002 5.06882 8.4002 5.4002ZM9.0002 7.2002C9.33157 7.2002 9.6002 6.93157 9.6002 6.6002C9.6002 6.26883 9.33157 6.0002 9.0002 6.0002C8.66883 6.0002 8.4002 6.26883 8.4002 6.6002C8.4002 6.93157 8.66883 7.2002 9.0002 7.2002ZM7.20019 6.6002C7.20019 6.93157 6.93157 7.2002 6.6002 7.2002C6.26882 7.2002 6.0002 6.93157 6.0002 6.6002C6.0002 6.26883 6.26882 6.0002 6.6002 6.0002C6.93157 6.0002 7.20019 6.26883 7.20019 6.6002ZM4.2002 7.2002C4.53157 7.2002 4.80019 6.93157 4.80019 6.6002C4.80019 6.26883 4.53157 6.0002 4.2002 6.0002C3.86882 6.0002 3.60019 6.26883 3.60019 6.6002C3.60019 6.93157 3.86882 7.2002 4.2002 7.2002ZM2.4002 6.6002C2.4002 6.93157 2.13157 7.2002 1.8002 7.2002C1.46882 7.2002 1.2002 6.93157 1.2002 6.6002C1.2002 6.26883 1.46882 6.0002 1.8002 6.0002C2.13157 6.0002 2.4002 6.26883 2.4002 6.6002Z" fill="url(#paint0_linear_167_1464)"/>
</g>
<defs>
<filter id="filter0_d_167_1464" x="1.2002" y="1.2002" width="8.3999" height="7" filterUnits="userSpaceOnUse" color-interpolation-filters="sRGB">
<feFlood flood-opacity="0" result="BackgroundImageFix"/>
<feColorMatrix in="SourceAlpha" type="matrix" values="0 0 0 0 0 0 0 0 0 0 0 0 0 0 0 0 0 0 127 0" result="hardAlpha"/>
<feOffset dy="1"/>
<feColorMatrix type="matrix" values="0 0 0 0 0 0 0 0 0 0 0 0 0 0 0 0 0 0 0.06 0"/>
<feBlend mode="normal" in2="BackgroundImageFix" result="effect1_dropShadow_167_1464"/>
<feBlend mode="normal" in="SourceGraphic" in2="effect1_dropShadow_167_1464" result="shape"/>
</filter>
<linearGradient id="paint0_linear_167_1464" x1="1.2002" y1="1.2002" x2="1.2002" y2="7.2002" gradientUnits="userSpaceOnUse">
<stop stop-color="white"/>
<stop offset="1" stop-color="#F0F0F0"/>
</linearGradient>
</defs>
</svg>
