<svg width="28" height="28" viewBox="0 0 28 28" fill="none" xmlns="http://www.w3.org/2000/svg">
<path d="M23.0289 18.9783L23.0298 18.9793C23.0556 19.0105 23.1002 19.0646 23.1472 19.1217C23.2023 19.1886 23.2608 19.2597 23.297 19.3033C23.4095 19.4393 23.4806 19.6046 23.5021 19.7797L24.4947 19.6582L23.5021 19.7798C23.5235 19.955 23.4943 20.1327 23.4178 20.2918L23.4171 20.2934C23.2521 20.6383 22.8987 20.8734 22.4494 20.8734H5.557C5.10099 20.8734 4.74588 20.6355 4.583 20.2923L4.58162 20.2894C4.50551 20.1304 4.47655 19.9529 4.49818 19.7779C4.51981 19.6029 4.59112 19.4378 4.70366 19.3021L4.70369 19.3021L4.70952 19.2949C4.78593 19.201 4.86107 19.1104 4.93835 19.0172C4.94924 19.0041 4.96017 18.9909 4.97115 18.9777L4.97137 18.9774L5.00119 18.9414C5.58803 18.2332 6.16669 17.5349 6.55852 16.4541C6.94932 15.3761 7.13231 13.9901 7.13231 11.8863C7.13231 10.1468 7.48055 8.79795 8.1186 7.76109C8.75107 6.73332 9.71651 5.93324 11.0947 5.36588L11.1498 5.3432L11.2018 5.31413C11.3157 5.2505 11.4181 5.16829 11.5049 5.0709L11.6528 4.90497L11.7164 4.69204C12.0878 3.44972 13.05 2.75 14.0002 2.75C14.9504 2.75 15.913 3.44965 16.2844 4.6934L16.3451 4.89669L16.4832 5.05782C16.5729 5.16264 16.6807 5.25068 16.8013 5.3178L16.8527 5.34635L16.907 5.3687C18.0927 5.85653 18.9413 6.49333 19.5584 7.30016L19.5589 7.30088C20.3964 8.39378 20.8686 9.91061 20.8686 11.888C20.8686 13.9911 21.0519 15.3767 21.4429 16.4546C21.8342 17.5336 22.4116 18.2318 22.9968 18.9394L23.0289 18.9783Z" stroke="#13C6FF" stroke-width="2"/>
<path d="M14.0001 26.25C14.7903 26.2494 15.5657 26.0348 16.2439 25.6292C16.9221 25.2236 17.4779 24.642 17.8523 23.946C17.8699 23.9127 17.8786 23.8753 17.8775 23.8376C17.8765 23.7999 17.8657 23.7631 17.8462 23.7308C17.8267 23.6985 17.7992 23.6718 17.7663 23.6532C17.7335 23.6347 17.6964 23.625 17.6587 23.625H10.3426C10.3048 23.6249 10.2676 23.6345 10.2347 23.653C10.2017 23.6715 10.1742 23.6982 10.1546 23.7305C10.1351 23.7629 10.1242 23.7997 10.1231 23.8375C10.1221 23.8752 10.1308 23.9126 10.1484 23.946C10.5228 24.6419 11.0785 25.2234 11.7566 25.6291C12.4347 26.0347 13.2099 26.2493 14.0001 26.25Z" fill="#13C6FF"/>
</svg>
