<svg width="26" height="26" viewBox="0 0 26 26" fill="none" xmlns="http://www.w3.org/2000/svg">
<path opacity="0.3" d="M12.9998 3.45605L5.4165 6.82522V11.9169C5.4165 16.8136 8.64484 21.3311 12.9998 22.6744C17.3548 21.3419 20.5832 16.8136 20.5832 11.9169V6.82522L12.9998 3.45605ZM14.0832 18.4169H11.9165V11.9169H14.0832V18.4169ZM14.0832 9.75022H11.9165V7.58355H14.0832V9.75022Z" fill="#13C6FF"/>
<path d="M13 3.456L20.5833 6.82516V11.9168C20.5833 16.8135 17.355 21.331 13 22.6743C8.645 21.331 5.41667 16.8135 5.41667 11.9168V6.82516L13 3.456ZM13 1.0835L3.25 5.41683V11.9168C3.25 17.9293 7.41 23.5518 13 24.9168C18.59 23.5518 22.75 17.9293 22.75 11.9168V5.41683L13 1.0835ZM11.9167 7.5835H14.0833V9.75016H11.9167V7.5835ZM11.9167 11.9168H14.0833V18.4168H11.9167V11.9168Z" fill="#13C6FF"/>
</svg>
