<?xml version="1.0" standalone="no"?>
<!DOCTYPE svg PUBLIC "-//W3C//DTD SVG 20010904//EN"
 "http://www.w3.org/TR/2001/REC-SVG-20010904/DTD/svg10.dtd">
<svg version="1.0" xmlns="http://www.w3.org/2000/svg"
 width="127.000000pt" height="47.000000pt" viewBox="0 0 127.000000 47.000000"
 preserveAspectRatio="xMidYMid meet">

<g transform="translate(0.000000,47.000000) scale(0.100000,-0.100000)"
fill="#000000" stroke="none">
<path d="M572 311 c-8 -5 -12 -17 -10 -27 2 -14 14 -20 48 -24 57 -6 54 -24
-5 -28 -25 -2 -45 -7 -45 -13 0 -12 76 -12 101 1 41 23 10 60 -50 60 -17 0
-31 5 -31 10 0 6 20 10 45 10 25 0 45 5 45 10 0 12 -80 13 -98 1z"/>
<path d="M740 310 c0 -5 11 -10 25 -10 23 0 25 -4 25 -45 0 -25 5 -45 10 -45
6 0 10 20 10 45 0 41 2 45 25 45 14 0 25 5 25 10 0 6 -27 10 -60 10 -33 0 -60
-4 -60 -10z"/>
<path d="M936 274 c-27 -49 -31 -64 -18 -64 5 0 17 18 27 40 10 22 21 40 24
40 3 0 16 -18 29 -40 34 -60 46 -48 15 15 -15 30 -33 55 -39 55 -7 0 -24 -21
-38 -46z"/>
<path d="M1100 271 c0 -50 15 -76 26 -47 8 20 38 21 54 1 16 -20 34 -19 26 0
-3 9 0 25 7 35 20 34 -2 55 -62 58 l-51 3 0 -50z m98 7 c3 -15 -4 -18 -32 -18
-30 0 -36 4 -36 21 0 17 5 20 32 17 22 -2 34 -9 36 -20z"/>
<path d="M1010 160 c0 -5 5 -10 10 -10 6 0 10 5 10 10 0 6 -4 10 -10 10 -5 0
-10 -4 -10 -10z"/>
</g>
</svg>
