<svg width="19" height="25" viewBox="0 0 19 25" fill="none" xmlns="http://www.w3.org/2000/svg">
<g opacity="0.5">
<path d="M0 10.8164C6.25348 10.8164 12.3687 10.8164 18.5584 10.8164C18.5584 11.5928 18.5796 12.3479 18.5477 13.103C18.4839 14.5812 18.569 16.0914 18.2818 17.5166C17.3991 21.8132 13.4322 24.7804 8.97608 24.6421C4.60503 24.5145 0.797637 21.2495 0.212703 16.9103C-0.0531758 14.9216 0.063811 12.8796 0 10.8164ZM17.0375 12.3585C11.8476 12.3585 6.73206 12.3585 1.68036 12.3585C1.68036 13.7836 1.5421 15.1981 1.71226 16.5594C2.1483 20.0903 5.2006 22.8767 8.69956 23.1106C12.4112 23.3446 15.7081 21.0474 16.7185 17.5485C17.2183 15.8468 16.9312 14.1133 17.0375 12.3585Z" fill="#868686"/>
<path d="M15.4306 9.22044C14.952 9.22044 14.4841 9.22044 13.9523 9.22044C13.9523 8.15693 13.9629 7.10405 13.9523 6.05116C13.931 4.08366 12.8463 2.52029 11.0064 1.829C7.96472 0.680406 4.54019 2.84998 4.66782 6.18942C4.69972 7.18913 4.67845 8.18883 4.67845 9.22044C4.16796 9.22044 3.70002 9.22044 3.13635 9.22044C3.28524 7.45501 2.87047 5.68957 3.49795 3.96667C4.45511 1.30788 7.05009 -0.244853 10.0811 0.0316608C12.7293 0.265634 15.0584 2.42457 15.3881 5.13654C15.5582 6.46594 15.4306 7.83787 15.4306 9.22044Z" fill="#868686"/>
<path d="M11.6445 17.7181C11.6232 18.101 11.6339 18.4945 11.5594 18.8774C11.3574 20.0153 10.4427 20.7811 9.31541 20.8023C8.20936 20.8236 7.20965 20.0366 7.05012 18.9093C6.94377 18.1542 6.93314 17.3565 7.03949 16.5908C7.20965 15.3358 8.2838 14.5488 9.52812 14.6446C10.6661 14.7403 11.5701 15.7081 11.6232 16.9205C11.6339 17.1864 11.6232 17.4522 11.6232 17.7181C11.6339 17.7181 11.6445 17.7181 11.6445 17.7181ZM8.54968 17.7075C8.54968 17.984 8.53905 18.2712 8.54968 18.5477C8.58159 18.9837 8.8581 19.239 9.26224 19.2496C9.69828 19.2709 10.028 19.0263 10.0492 18.5689C10.0811 17.9946 10.0811 17.4097 10.0492 16.8248C10.0173 16.3887 9.69828 16.1654 9.29414 16.1654C8.87937 16.1654 8.60286 16.41 8.56032 16.846C8.52841 17.1438 8.54968 17.4203 8.54968 17.7075Z" fill="#868686"/>
</g>
</svg>
